<?xml version="1.0" encoding="UTF-8" standalone="no"?>
<!-- Created with Inkscape (http://www.inkscape.org/) -->

<svg
   xmlns:dc="http://purl.org/dc/elements/1.1/"
   xmlns:cc="http://creativecommons.org/ns#"
   xmlns:rdf="http://www.w3.org/1999/02/22-rdf-syntax-ns#"
   xmlns:svg="http://www.w3.org/2000/svg"
   xmlns="http://www.w3.org/2000/svg"
   xmlns:sodipodi="http://sodipodi.sourceforge.net/DTD/sodipodi-0.dtd"
   xmlns:inkscape="http://www.inkscape.org/namespaces/inkscape"
   width="16"
   height="16"
   id="svg2"
   version="1.1"
   inkscape:version="0.48.0 r9654"
   sodipodi:docname="discovery-anims.svg"
   inkscape:export-filename="/home/qubodup/src/git/discoverylaunch/animation-booster-2-big.png"
   inkscape:export-xdpi="720"
   inkscape:export-ydpi="720">
  <defs
     id="defs4">
    <linearGradient
       id="linearGradient3847">
      <stop
         style="stop-color:#a7a7a7;stop-opacity:1;"
         offset="0"
         id="stop3849" />
      <stop
         style="stop-color:#ffffff;stop-opacity:0;"
         offset="1"
         id="stop3851" />
    </linearGradient>
  </defs>
  <sodipodi:namedview
     id="base"
     pagecolor="#ffffff"
     bordercolor="#666666"
     borderopacity="1.0"
     inkscape:pageopacity="0.0"
     inkscape:pageshadow="2"
     inkscape:zoom="8"
     inkscape:cx="47.399999"
     inkscape:cy="12.314617"
     inkscape:document-units="px"
     inkscape:current-layer="layer1"
     showgrid="true"
     fit-margin-top="0"
     fit-margin-left="0"
     fit-margin-right="0"
     fit-margin-bottom="0"
     inkscape:window-width="1024"
     inkscape:window-height="581"
     inkscape:window-x="0"
     inkscape:window-y="19"
     inkscape:window-maximized="0">
    <inkscape:grid
       type="xygrid"
       id="grid2985"
       empspacing="8"
       visible="true"
       enabled="true"
       snapvisiblegridlinesonly="true" />
  </sodipodi:namedview>
  <metadata
     id="metadata7">
    <rdf:RDF>
      <cc:Work
         rdf:about="">
        <dc:format>image/svg+xml</dc:format>
        <dc:type
           rdf:resource="http://purl.org/dc/dcmitype/StillImage" />
        <dc:title></dc:title>
      </cc:Work>
    </rdf:RDF>
  </metadata>
  <g
     inkscape:label="Layer 1"
     inkscape:groupmode="layer"
     id="layer1"
     transform="translate(-509,-549.36218)">
    <rect
       style="fill:#150c42;fill-opacity:1;stroke:none"
       id="rect3005"
       width="24"
       height="24.000006"
       x="509"
       y="525.36218" />
    <g
       id="g3871"
       transform="matrix(-1,0,0,1,1030,-20)">
      <path
         sodipodi:nodetypes="cccc"
         inkscape:connector-curvature="0"
         id="path3007"
         d="m 533,555.36218 -1,3 2,0 z"
         style="fill:#d1d1d1;fill-opacity:1;stroke:none" />
      <path
         inkscape:connector-curvature="0"
         id="path3777"
         d="m 533,555.36218 -2,3 3,0 z"
         style="fill:#d1d1d1;fill-opacity:0.31081082;stroke:none" />
      <path
         inkscape:connector-curvature="0"
         id="path3779"
         d="m 533,555.36218 2,4 -4,0 z"
         style="fill:#d1d1d1;fill-opacity:0.31081082;stroke:none" />
      <path
         sodipodi:nodetypes="cccc"
         inkscape:connector-curvature="0"
         id="path3781"
         d="m 533,555.36218 3,3 -4,0 z"
         style="fill:#d1d1d1;fill-opacity:0.31081082;stroke:none" />
      <path
         inkscape:connector-curvature="0"
         id="path3783"
         d="m 533,555.36218 -2,2 1,1 z"
         style="fill:#d1d1d1;fill-opacity:0.31081082;stroke:none" />
    </g>
    <g
       id="g3851"
       transform="translate(-48,-10)">
      <path
         sodipodi:nodetypes="cccc"
         inkscape:connector-curvature="0"
         id="path3795"
         d="m 545,565.36218 -1,4 2,0 z"
         style="fill:#d1d1d1;fill-opacity:1;stroke:none" />
      <path
         inkscape:connector-curvature="0"
         id="path3785"
         d="m 545,565.36218 -2,3 3,0 z"
         style="fill:#d1d1d1;fill-opacity:0.31081082;stroke:none" />
      <path
         inkscape:connector-curvature="0"
         id="path3787"
         d="m 545,565.36218 2,4 -2,0 z"
         style="fill:#d1d1d1;fill-opacity:0.31081082;stroke:none" />
      <path
         inkscape:connector-curvature="0"
         id="path3789"
         d="m 545,565.36218 -2,4 3,0 z"
         style="fill:#d1d1d1;fill-opacity:0.31081082;stroke:none" />
      <path
         inkscape:connector-curvature="0"
         id="path3791"
         d="m 545,565.36218 2,2 -2,2 z"
         style="fill:#d1d1d1;fill-opacity:0.31081082;stroke:none" />
      <path
         inkscape:connector-curvature="0"
         id="path3793"
         d="m 545,565.36218 -1,3 3,0 z"
         style="fill:#d1d1d1;fill-opacity:0.31081082;stroke:none" />
    </g>
    <g
       id="g3844"
       transform="translate(-20,4)">
      <path
         transform="translate(509,501.36218)"
         inkscape:connector-curvature="0"
         id="path3799"
         d="m 26,71 1,-1 0,1 z"
         style="fill:#ffed73;fill-opacity:1;stroke:none" />
      <path
         transform="translate(509,501.36218)"
         inkscape:connector-curvature="0"
         id="path3801"
         d="m 27,72 1,1 0,-1 z"
         style="fill:#ffed73;fill-opacity:1;stroke:none" />
      <path
         transform="translate(509,501.36218)"
         inkscape:connector-curvature="0"
         id="path3803"
         d="m 29,70 1,1 -1,0 z"
         style="fill:#ffed73;fill-opacity:1;stroke:none" />
      <path
         transform="translate(509,501.36218)"
         inkscape:connector-curvature="0"
         id="path3805"
         d="m 28,72 1,-1 0,1 z"
         style="fill:#ffed73;fill-opacity:1;stroke:none" />
      <path
         style="fill:#ffed73;fill-opacity:1;stroke:none"
         d="m 538,573.36218 1,1 -1,0 z"
         id="path3817"
         inkscape:connector-curvature="0" />
    </g>
    <g
       id="g3836"
       transform="translate(-48,4)">
      <path
         inkscape:connector-curvature="0"
         id="path3807"
         d="m 543,572.36218 0,-1 1,0 z"
         style="fill:#ffed73;fill-opacity:1;stroke:none" />
      <path
         inkscape:connector-curvature="0"
         id="path3809"
         d="m 544,573.36218 1,-1 -1,0 z"
         style="fill:#ffed73;fill-opacity:1;stroke:none" />
      <path
         inkscape:connector-curvature="0"
         id="path3811"
         d="m 543,573.36218 1,1 -1,0 z"
         style="fill:#ffed73;fill-opacity:1;stroke:none" />
      <path
         inkscape:connector-curvature="0"
         id="path3813"
         d="m 546,571.36218 1,1 0,-1 z"
         style="fill:#ffed73;fill-opacity:1;stroke:none" />
      <path
         inkscape:connector-curvature="0"
         id="path3815"
         d="m 546,573.36218 -1,1 0,-1 z"
         style="fill:#ffed73;fill-opacity:1;stroke:none" />
      <path
         style="fill:#ffed73;fill-opacity:1;stroke:none"
         d="m 546,572.36218 1,1 -1,0 z"
         id="path3819"
         inkscape:connector-curvature="0" />
    </g>
    <path
       style="fill:#0764ff;fill-opacity:0.66216221;stroke:none"
       d="m 515,529.36218 -2,6 1,-1 -1,5 3,-3 2,3 1,-3 2,3 -1,-6 1,1 -2,-5 z"
       id="path3821"
       inkscape:connector-curvature="0"
       sodipodi:nodetypes="cccccccccccc" />
    <path
       sodipodi:nodetypes="cccccccccccc"
       inkscape:connector-curvature="0"
       id="path3823"
       d="m 535,529.36218 -2,3 2,-1 -1,7 2,-1 1,2 2,-2 1,2 -1,-4 2,1 -2,-7 z"
       style="fill:#0764ff;fill-opacity:0.66216221;stroke:none" />
    <path
       style="fill:#ffff85;fill-opacity:1;stroke:none"
       d="m 535,549.36218 -1,2 1,2 0,2 -1,1 0,1 1,1 -1,2 0,1 1,1 4,0 1,-2 -1,-2 0,-2 1,-1 0,-2 -1,-1 0,-1 1,-1 -1,-1 z"
       id="path3825"
       inkscape:connector-curvature="0" />
    <path
       inkscape:connector-curvature="0"
       id="path3827"
       d="m 539,569.36218 1,1 0,3 -1,1 0,2 1,1 0,2 -1,1 1,2 -5,0 -1,-1 0,-2 1,-2 0,-2 -1,-1 1,-1 -1,-2 1,-1 0,-1 z"
       style="fill:#ffff85;fill-opacity:1;stroke:none"
       sodipodi:nodetypes="cccccccccccccccccccc" />
  </g>
</svg>
